<svg width="25" height="25" viewBox="0 0 25 25" fill="none" xmlns="http://www.w3.org/2000/svg">
<g opacity="0.32">
<path d="M12.2083 0.163086H17.5416C20.4871 0.163086 22.8749 2.59595 22.8749 5.59705C22.8749 8.59814 20.4871 11.031 17.5416 11.031C14.5961 11.031 12.2083 8.59814 12.2083 5.59705V0.163086Z" fill="white"/>
<path d="M12.2083 12.8422C12.2083 12.342 12.6062 11.9365 13.0971 11.9365H18.6527C21.9664 11.9365 24.6526 14.6735 24.6526 18.0497C24.6526 21.426 21.9664 24.1629 18.6527 24.1629H13.0971C12.6062 24.1629 12.2083 23.7575 12.2083 23.2573V12.8422Z" fill="white"/>
<path d="M0.652588 5.59705C0.652588 2.59595 3.04039 0.163086 5.9859 0.163086C8.93141 0.163086 11.3192 2.59595 11.3192 5.59705V18.7291C11.3192 21.7302 8.93141 24.1631 5.9859 24.1631C3.04039 24.1631 0.652588 21.7302 0.652588 18.7291V5.59705Z" fill="white"/>
<path d="M2.43018 5.59633C2.43018 3.59584 4.02186 1.97412 5.9853 1.97412C7.94873 1.97412 9.54041 3.59584 9.54041 5.59633C9.54041 7.59682 7.94873 9.21854 5.9853 9.21854C4.02186 9.21854 2.43018 7.59682 2.43018 5.59633Z" fill="#323232"/>
</g>
</svg>
